<?xml version="1.0" encoding="UTF-8" standalone="no"?>
<svg
   id="Capa_1"
   data-name="Capa 1"
   viewBox="0 0 1080 1080"
   version="1.1"
   sodipodi:docname="SÃMBOLO-Hackerspace-yellow.svg"
   inkscape:version="1.4.2 (ebf0e940d0, 2025-05-08)"
   xmlns:inkscape="http://www.inkscape.org/namespaces/inkscape"
   xmlns:sodipodi="http://sodipodi.sourceforge.net/DTD/sodipodi-0.dtd"
   xmlns="http://www.w3.org/2000/svg"
   xmlns:svg="http://www.w3.org/2000/svg">
  <sodipodi:namedview
     id="namedview3"
     pagecolor="#ffffff"
     bordercolor="#000000"
     borderopacity="0.25"
     inkscape:showpageshadow="2"
     inkscape:pageopacity="0.0"
     inkscape:pagecheckerboard="0"
     inkscape:deskcolor="#d1d1d1"
     inkscape:zoom="0.80466133"
     inkscape:cx="474.73389"
     inkscape:cy="502.69596"
     inkscape:window-width="2516"
     inkscape:window-height="1352"
     inkscape:window-x="0"
     inkscape:window-y="0"
     inkscape:window-maximized="1"
     inkscape:current-layer="Capa_1" />
  <defs
     id="defs1">
    <style
       id="style1">
      .cls-1 {
        fill: #051d4c;
      }

      .cls-2 {
        fill: #e04320;
      }
    </style>
  </defs>
  <rect
     style="fill:#febf3e;fill-opacity:1;stroke-width:1.08109"
     id="rect3"
     width="963.32257"
     height="963.32257"
     x="57.899334"
     y="57.289967"
     inkscape:label="rect3"
     ry="219.96832" />
  <circle
     class="cls-1"
     cx="166.07"
     cy="503.56"
     r="46.97"
     id="circle1" />
  <circle
     class="cls-1"
     cx="913.93"
     cy="503.56"
     r="46.97"
     id="circle2" />
  <path
     class="cls-2"
     d="m599.37,631.97c0-17.18-13.92-31.1-31.1-31.1-12.55,0-23.36,7.44-28.27,18.15-4.91-10.71-15.72-18.15-28.27-18.15-17.18,0-31.1,13.92-31.1,31.1,0,24.31,59.25,77.3,59.25,77.3v.46l.21-.23.21.23v-.46s59.07-52.99,59.07-77.3Z"
     id="path2" />
  <path
     class="cls-1"
     d="m920.42,614.48c-9.97-8.54-23.33-16.16-40.85-23.27-25.65-10.41-60.47-19.58-101.67-26.83v-31.02c0-49.29-40.1-89.38-89.38-89.38h-253.42v-73.57c0-57.84,47.06-104.9,104.9-104.9s104.9,47.06,104.9,104.9c0,14.89,12.07,26.97,26.97,26.97s26.97-12.07,26.97-26.97c0-87.58-71.25-158.84-158.84-158.84s-158.84,71.25-158.84,158.84v74.17c-44.44,5.13-79.07,42.99-79.07,88.78v31.02c-41.2,7.25-76.02,16.42-101.67,26.83-17.52,7.11-30.88,14.72-40.85,23.27-17.75,15.21-21.47,31.08-21.47,41.72s3.73,26.51,21.47,41.72c9.97,8.54,23.33,16.16,40.85,23.27,25.65,10.41,60.47,19.58,101.67,26.83v31.02c0,49.29,40.1,89.38,89.38,89.38h297.04c49.29,0,89.38-40.1,89.38-89.38v-31.02c41.2-7.25,76.02-16.42,101.67-26.83,17.52-7.11,30.88-14.72,40.85-23.27,17.75-15.21,21.47-31.08,21.47-41.72s-3.73-26.51-21.47-41.72Zm-562.39-81.12c0-18.45,15.01-33.45,33.45-33.45h297.04c18.45,0,33.45,15.01,33.45,33.45v166.48c-.16.02-.32.04-.48.06-3.06.38-6.15.76-9.26,1.12-.33.04-.66.08-.98.12-3.09.36-6.21.71-9.35,1.05-.57.06-1.13.12-1.7.18-3.08.33-6.17.65-9.28.96-.56.06-1.13.11-1.7.17-3.21.31-6.43.62-9.67.91-.25.02-.51.04-.77.07-3.16.28-6.34.56-9.53.82-.45.04-.9.08-1.35.11-3.21.26-6.44.51-9.69.75-.65.05-1.29.1-1.94.14-3.21.24-6.44.46-9.68.68-.6.04-1.2.08-1.8.12-3.37.22-6.74.43-10.14.63-.22.01-.44.02-.67.04-3.31.19-6.63.37-9.97.54-.52.03-1.03.05-1.55.08-3.34.17-6.69.32-10.05.47-.67.03-1.34.06-2.01.09-3.35.14-6.71.28-10.08.4-.59.02-1.18.04-1.76.06-3.52.12-7.06.24-10.6.34-.12,0-.25,0-.37,0-3.5.1-7.02.19-10.54.26-.53.01-1.06.02-1.6.04-3.45.07-6.91.13-10.38.18-.67,0-1.33.02-2,.03-3.47.05-6.95.08-10.43.11-.55,0-1.09,0-1.64.01-3.67.02-7.34.04-11.02.04s-7.35-.02-11.02-.04c-.55,0-1.09,0-1.64-.01-3.49-.03-6.96-.06-10.43-.11-.67,0-1.33-.02-2-.03-3.47-.05-6.93-.11-10.38-.18-.53-.01-1.06-.02-1.59-.04-3.52-.08-7.04-.16-10.55-.26-.12,0-.25,0-.37,0-3.55-.1-7.08-.22-10.61-.34-.59-.02-1.17-.04-1.76-.06-3.37-.12-6.74-.26-10.09-.4-.67-.03-1.34-.06-2-.09-3.36-.15-6.71-.3-10.05-.47-.52-.03-1.03-.05-1.54-.08-3.34-.17-6.67-.35-9.98-.54-.22-.01-.44-.02-.65-.04-3.4-.2-6.78-.41-10.15-.63-.6-.04-1.19-.08-1.79-.12-3.24-.22-6.47-.44-9.68-.68-.65-.05-1.29-.1-1.93-.14-3.25-.24-6.48-.49-9.69-.75-.45-.04-.89-.07-1.34-.11-3.2-.26-6.38-.54-9.54-.82-.25-.02-.51-.04-.76-.07-3.24-.29-6.47-.6-9.67-.91-.56-.06-1.13-.11-1.69-.17-3.11-.31-6.21-.63-9.28-.96-.57-.06-1.14-.12-1.71-.18-3.13-.34-6.25-.69-9.34-1.05-.33-.04-.67-.08-1-.12-3.1-.36-6.18-.74-9.23-1.12-.16-.02-.33-.04-.49-.06v-166.48Zm-161.15,122.84c4.59-3.68,14.55-9.91,35.15-17.15,18.78-6.6,42.62-12.65,70.06-17.83v69.94c-27.44-5.17-51.29-11.23-70.06-17.82-20.6-7.24-30.56-13.47-35.15-17.15Zm525.09,122.84c0,18.45-15.01,33.45-33.45,33.45h-297.04c-18.45,0-33.45-15.01-33.45-33.45v-22.84c.27.03.54.06.81.09,3.15.38,6.32.74,9.51,1.1.08,0,.17.02.25.03,3.21.36,6.45.7,9.7,1.04.53.06,1.07.11,1.6.17,3.18.32,6.37.64,9.58.94.47.04.95.09,1.42.13,3.26.31,6.54.6,9.84.89.08,0,.16.01.24.02,3.33.29,6.67.56,10.03.83.57.05,1.14.09,1.71.14,3.27.25,6.55.5,9.84.73.53.04,1.07.07,1.61.11,3.35.23,6.71.46,10.09.68.08,0,.16.01.25.02,3.41.22,6.85.42,10.29.61.61.03,1.21.07,1.82.1,3.34.19,6.7.36,10.07.53.58.03,1.16.06,1.74.08,3.44.16,6.88.32,10.34.47.07,0,.14,0,.22,0,3.49.14,6.99.28,10.5.4.64.02,1.28.05,1.91.07,3.4.12,6.81.22,10.23.32.62.02,1.24.03,1.87.05,3.52.09,7.04.18,10.57.25.04,0,.09,0,.13,0,3.55.07,7.12.13,10.69.18.65,0,1.31.02,1.96.03,3.44.05,6.89.08,10.35.11.67,0,1.33,0,2,.01,3.59.02,7.19.04,10.79.04s7.2-.01,10.79-.04c.67,0,1.33,0,2-.01,3.46-.03,6.91-.06,10.35-.11.65,0,1.31-.02,1.96-.03,3.57-.05,7.14-.11,10.69-.18.04,0,.09,0,.13,0,3.53-.07,7.06-.16,10.57-.25.62-.02,1.24-.03,1.87-.05,3.42-.1,6.83-.2,10.23-.32.64-.02,1.28-.04,1.91-.07,3.51-.12,7.01-.25,10.5-.4.07,0,.14,0,.21,0,3.46-.14,6.91-.3,10.34-.47.58-.03,1.16-.05,1.74-.08,3.37-.17,6.72-.34,10.07-.53.61-.03,1.21-.07,1.82-.1,3.44-.19,6.88-.4,10.29-.61.08,0,.16-.01.25-.02,3.38-.21,6.74-.44,10.09-.68.54-.04,1.07-.07,1.61-.11,3.3-.23,6.58-.48,9.84-.73.57-.04,1.14-.09,1.71-.14,3.36-.27,6.7-.54,10.03-.83.08,0,.17-.01.25-.02,3.3-.28,6.57-.58,9.83-.89.48-.04.95-.09,1.43-.13,3.21-.3,6.4-.62,9.57-.94.54-.05,1.07-.11,1.61-.17,3.25-.34,6.48-.68,9.69-1.04.09,0,.18-.02.27-.03,3.19-.35,6.35-.72,9.49-1.1.27-.03.55-.06.82-.09v22.84Zm126-105.69c-18.78,6.6-42.62,12.65-70.06,17.82v-69.94c27.44,5.17,51.29,11.23,70.06,17.83,20.6,7.24,30.56,13.47,35.15,17.15-4.59,3.68-14.55,9.91-35.15,17.15Z"
     id="path3" />
</svg>
